<svg width="1440" height="900" viewBox="0 0 1440 900" fill="none" xmlns="http://www.w3.org/2000/svg">
<g clip-path="url(#clip0_15_1)">
<rect width="1440" height="900" fill="#435AF6"/>
<g opacity="0.8">
<path opacity="0.2" d="M358.855 776.448C315.454 776.448 280 811.596 280 855.302C280 898.703 315.148 934.157 358.855 934.157C402.255 934.157 437.709 899.009 437.709 855.302C437.709 811.596 402.561 776.448 358.855 776.448Z" fill="url(#paint0_linear_15_1)"/>
<path opacity="0.3" d="M495.781 934.769L437.709 926.517C412.036 922.849 394.309 899.315 397.671 873.641L405.923 815.57C409.591 789.896 433.125 772.169 458.799 775.531L516.87 783.783C542.543 787.451 560.27 810.985 556.908 836.659L548.656 894.73C545.294 920.404 521.454 938.131 495.781 934.769Z" fill="url(#paint1_linear_15_1)"/>
<path opacity="0.5" d="M616.202 935.992L541.321 914.597C523.288 909.401 512.897 890.451 518.092 872.419L539.487 797.537C544.683 779.505 563.633 769.113 581.665 774.309L656.547 795.704C674.579 800.899 684.971 819.849 679.775 837.882L658.38 912.763C652.879 930.796 634.235 941.187 616.202 935.992Z" fill="url(#paint2_linear_15_1)"/>
<path opacity="0.7" d="M746.71 940.27L649.211 897.175C640.959 893.508 637.291 883.727 640.959 875.475L684.36 778.282C688.027 770.03 697.808 766.362 706.06 770.03L803.253 813.431C811.505 817.098 815.173 826.879 811.505 835.131L768.105 932.324C764.437 940.27 754.962 943.938 746.71 940.27Z" fill="url(#paint3_linear_15_1)"/>
<path opacity="0.8" d="M890.36 947.3L776.968 876.392L847.876 763L961.268 833.908L890.36 947.3Z" fill="url(#paint4_linear_15_1)"/>
</g>
<path opacity="0.6" d="M1118 259H1256C1269.3 259 1280 269.7 1280 283V307C1280 320.3 1269.3 331 1256 331H1118C1104.7 331 1094 320.3 1094 307V283C1094 269.7 1104.7 259 1118 259Z" fill="url(#paint5_linear_15_1)"/>
<g opacity="0.6">
<path opacity="0.5" d="M1304.7 703L1466 669.3L1517.5 512.8L1356.2 546.5L1304.7 703Z" fill="url(#paint6_linear_15_1)"/>
<path opacity="0.6" d="M1246.4 423.6L1195 580.1L1304.7 703L1356.2 546.5L1246.4 423.6Z" fill="url(#paint7_linear_15_1)"/>
<path opacity="0.7" d="M1246.4 423.6L1356.2 546.5L1517.5 512.8L1407.7 390L1246.4 423.6Z" fill="url(#paint8_linear_15_1)"/>
</g>
<path d="M1198.8 739H990.2C985.7 739 982 735.3 982 730.8V711.2C982 706.7 985.7 703 990.2 703H1198.8C1203.3 703 1207 706.7 1207 711.2V730.8C1207 735.3 1203.3 739 1198.8 739Z" fill="url(#paint9_linear_15_1)"/>
</g>
<defs>
<linearGradient id="paint0_linear_15_1" x1="281.94" y1="855.101" x2="433.445" y2="855.101" gradientUnits="userSpaceOnUse">
<stop stop-color="white"/>
<stop offset="1" stop-color="#4353FF" stop-opacity="0"/>
</linearGradient>
<linearGradient id="paint1_linear_15_1" x1="409.027" y1="855.101" x2="563.529" y2="855.101" gradientUnits="userSpaceOnUse">
<stop stop-color="white"/>
<stop offset="1" stop-color="#4353FF" stop-opacity="0"/>
</linearGradient>
<linearGradient id="paint2_linear_15_1" x1="522.173" y1="855.102" x2="677.765" y2="855.102" gradientUnits="userSpaceOnUse">
<stop stop-color="white"/>
<stop offset="1" stop-color="#4353FF" stop-opacity="0"/>
</linearGradient>
<linearGradient id="paint3_linear_15_1" x1="652.303" y1="855.102" x2="810.613" y2="855.102" gradientUnits="userSpaceOnUse">
<stop stop-color="white"/>
<stop offset="1" stop-color="#4353FF" stop-opacity="0"/>
</linearGradient>
<linearGradient id="paint4_linear_15_1" x1="791.508" y1="855.101" x2="967.287" y2="855.101" gradientUnits="userSpaceOnUse">
<stop stop-color="white"/>
<stop offset="0.0001" stop-color="white"/>
<stop offset="1" stop-color="#4353FF" stop-opacity="0"/>
</linearGradient>
<linearGradient id="paint5_linear_15_1" x1="1424.13" y1="44.7617" x2="991.121" y2="501.711" gradientUnits="userSpaceOnUse">
<stop stop-color="white"/>
<stop offset="1" stop-color="white" stop-opacity="0"/>
</linearGradient>
<linearGradient id="paint6_linear_15_1" x1="948.217" y1="-355.803" x2="1491.92" y2="776.059" gradientUnits="userSpaceOnUse">
<stop stop-color="white"/>
<stop offset="1" stop-color="white" stop-opacity="0"/>
</linearGradient>
<linearGradient id="paint7_linear_15_1" x1="825.671" y1="6.62432" x2="1708.86" y2="1099.31" gradientUnits="userSpaceOnUse">
<stop stop-color="white"/>
<stop offset="1" stop-color="white" stop-opacity="0"/>
</linearGradient>
<linearGradient id="paint8_linear_15_1" x1="788.7" y1="-11.7001" x2="1460.7" y2="829.8" gradientUnits="userSpaceOnUse">
<stop stop-color="white"/>
<stop offset="1" stop-color="white" stop-opacity="0"/>
</linearGradient>
<linearGradient id="paint9_linear_15_1" x1="941.019" y1="721" x2="1457.76" y2="721" gradientUnits="userSpaceOnUse">
<stop stop-color="white" stop-opacity="0"/>
<stop offset="0.9996" stop-color="#4353FF" stop-opacity="0.9996"/>
<stop offset="1" stop-color="white"/>
</linearGradient>
<clipPath id="clip0_15_1">
<rect width="1440" height="900" fill="white"/>
</clipPath>
</defs>
</svg>
